<svg width="12" height="27" viewBox="0 0 12 27" fill="none" xmlns="http://www.w3.org/2000/svg">
<path d="M5.8464 26.772V24.2772C4.116 24.1932 2.814 23.6388 1.9404 22.614C1.0836 21.5724 0.6216 19.9764 0.5544 17.826L4.41 17.2464C4.4268 18.12 4.5024 18.8256 4.6368 19.3632C4.7712 19.9008 4.9644 20.2872 5.2164 20.5224C5.4852 20.7576 5.8044 20.8752 6.174 20.8752C6.6444 20.8752 6.9468 20.7156 7.0812 20.3964C7.2324 20.0772 7.308 19.7412 7.308 19.3884C7.308 18.5484 7.1064 17.8428 6.7032 17.2716C6.3168 16.6836 5.7792 16.0956 5.0904 15.5076L3.3012 13.9704C2.7972 13.5168 2.3352 13.0548 1.9152 12.5844C1.512 12.0972 1.1844 11.5428 0.9324 10.9212C0.6804 10.2828 0.5544 9.5268 0.5544 8.6532C0.5544 7.0572 1.008 5.8056 1.9152 4.8984C2.8392 3.9912 4.074 3.4788 5.6196 3.3612V0.967198H6.9048V3.336C7.8792 3.3864 8.6604 3.6132 9.2484 4.0164C9.8364 4.4028 10.2732 4.89 10.5588 5.478C10.8612 6.0492 11.0628 6.6624 11.1636 7.3176C11.2812 7.956 11.3484 8.5524 11.3652 9.1068L7.4592 9.5856C7.4424 8.9808 7.4004 8.4516 7.3332 7.998C7.2828 7.5444 7.1652 7.2 6.9804 6.9648C6.8124 6.7128 6.5352 6.5952 6.1488 6.612C5.7288 6.612 5.418 6.7884 5.2164 7.1412C5.0148 7.494 4.914 7.8468 4.914 8.1996C4.914 9.006 5.1156 9.6612 5.5188 10.1652C5.9388 10.6524 6.3924 11.1144 6.8796 11.5512L8.5932 13.038C9.1644 13.5588 9.6852 14.1132 10.1556 14.7012C10.6428 15.2892 11.0292 15.9444 11.3148 16.6668C11.6004 17.3892 11.7432 18.2208 11.7432 19.1616C11.7432 20.052 11.5584 20.8668 11.1888 21.606C10.8192 22.3452 10.29 22.95 9.6012 23.4204C8.9124 23.874 8.0892 24.1512 7.1316 24.252V26.772H5.8464Z" fill="#10446D"/>
</svg>
