<svg width="35" height="35" viewBox="0 0 35 35" fill="none" xmlns="http://www.w3.org/2000/svg">
<circle cx="17.5" cy="17.5" r="17.5" fill="#64B5F6"/>
<ellipse cx="17.6024" cy="17.5" rx="15.5556" ry="15.6361" fill="white"/>
<path d="M17.101 22.0618L11.4649 18.8795C11.2894 18.7895 11.078 18.8536 10.6513 19.0183C10.3595 19.1768 10.1785 19.243 9.56766 18.9831L5.96844 16.7884C5.86979 16.6203 5.93223 16.5756 6.11562 16.5263L8.43509 17.5166C8.7704 17.5308 8.74557 17.44 8.59629 17.2295L6.47306 15.8897C6.3813 15.709 6.43421 15.6625 6.62024 15.6276L8.91869 16.6553C9.2312 16.6573 9.26003 16.5725 9.11493 16.3058L6.97067 15.0035C6.88816 14.8118 6.94485 14.7699 7.11785 14.7413L10.9764 16.4743C11.3413 16.7374 11.526 16.8943 11.6255 17.2833C11.657 17.7622 11.6997 17.9785 11.9064 18.0931L17.7247 20.9509C18.1077 21.6859 18.0258 21.9554 17.101 22.0618Z" fill="#64B5F6" stroke="#64B5F6" stroke-width="0.2"/>
<path d="M18.0282 21.843C17.262 21.9433 16.6716 22.2571 16.8649 20.8199L22.12 15.7699C22.1232 15.6262 22.0499 15.4681 21.8938 15.1599C21.694 14.6264 21.7344 14.4226 21.9627 14.1567C24.6158 11.6154 25.9747 10.4943 27.6653 10.2256C28.5345 10.2293 28.257 10.4465 28.2127 10.7071L18.0282 21.843Z" fill="#64B5F6" stroke="#64B5F6" stroke-width="0.2"/>
<ellipse cx="17.2842" cy="21.3931" rx="0.980688" ry="0.947819" fill="#64B5F6"/>
</svg>
