<svg width="16" height="18" viewBox="0 0 16 18" fill="none" xmlns="http://www.w3.org/2000/svg">
<path fill-rule="evenodd" clip-rule="evenodd" d="M9.7736 13.2293C8.83419 13.742 7.75665 14.0334 6.61106 14.0334C2.95987 14.0334 0 11.0735 0 7.42234C0 3.77115 2.95987 0.811279 6.61106 0.811279C10.2622 0.811279 13.2221 3.77115 13.2221 7.42234C13.2221 9.20113 12.5196 10.8158 11.3769 12.0042L15.9585 16.5858L14.5443 18L9.7736 13.2293ZM11.8999 7.42234C11.8999 10.3433 9.532 12.7112 6.61106 12.7112C3.69011 12.7112 1.32221 10.3433 1.32221 7.42234C1.32221 4.50139 3.69011 2.1335 6.61106 2.1335C9.532 2.1335 11.8999 4.50139 11.8999 7.42234Z" fill="#64B5F6"/>
</svg>
