<svg width="25" height="36" viewBox="0 0 25 36" fill="none" xmlns="http://www.w3.org/2000/svg">
<path d="M12.6589 36C3.79175 22.2213 -0.310784 15.8916 1.96822 17.004L23.3501 17.004C22.5503 20.6418 18.5492 26.6615 12.6589 36Z" fill="#42A5F5"/>
<path fill-rule="evenodd" clip-rule="evenodd" d="M12.3501 25C18.9775 25 24.3501 19.4036 24.3501 12.5C24.3501 5.59644 18.9775 0 12.3501 0C5.72268 0 0.350098 5.59644 0.350098 12.5C0.350098 19.4036 5.72268 25 12.3501 25ZM12.3501 17C15.1115 17 17.3501 14.7614 17.3501 12C17.3501 9.23858 15.1115 7 12.3501 7C9.58867 7 7.3501 9.23858 7.3501 12C7.3501 14.7614 9.58867 17 12.3501 17Z" fill="#42A5F5"/>
</svg>
